<?xml version="1.0" encoding="UTF-8"?>
<svg id="Layer_2" data-name="Layer 2" xmlns="http://www.w3.org/2000/svg" viewBox="0 0 61.69 61.93">
  <defs>
    <style>
      .cls-1 {
        fill: #287246;
      }

      .cls-2 {
        fill: none;
        stroke: #287246;
        stroke-miterlimit: 10;
        stroke-width: 5.67px;
      }
    </style>
  </defs>
  <g id="Layer_1-2" data-name="Layer 1">
    <g>
      <path class="cls-2" d="m30.85,2.83C15.37,2.83,2.84,15.28,2.83,30.63c0,5.25,1.47,10.16,4.02,14.35-.94,4.38-1.88,8.77-2.82,13.15,4.43-1.05,8.85-2.1,13.28-3.16,4.02,2.2,8.63,3.46,13.54,3.46,15.47,0,28.02-12.44,28.02-27.8S46.32,2.84,30.85,2.83Z"/>
      <path class="cls-1" d="m44.21,40.51c-.57,1.59-3.37,3.12-4.63,3.24-1.26.12-1.26,1.03-8.24-1.7-6.98-2.73-11.39-9.83-11.73-10.29-.34-.45-2.8-3.69-2.8-7.05s1.78-5,2.4-5.68c.63-.68,1.37-.85,1.83-.85s.92.06,1.32.06.97-.23,1.54,1.14c.58,1.36,1.95,4.71,2.12,5.06.17.34.28.74.06,1.2-.23.46-.34.74-.69,1.13-.34.4-.72.89-1.03,1.2-.34.34-.7.71-.3,1.39.4.68,1.78,2.91,3.82,4.72,2.62,2.32,4.84,3.03,5.52,3.38.69.34,1.09.28,1.49-.18.4-.46,1.72-1.99,2.17-2.67.46-.68.92-.57,1.55-.34.63.22,4.01,1.87,4.69,2.21.68.34,1.14.51,1.32.79.17.28.17,1.65-.4,3.25Z"/>
    </g>
  </g>
</svg>